ffmpeg started on 2025-05-12 at 17:03:53
Report written to "D:\Convert\FFMetrics\reports\ssim_report-6.txt"
Log level: 32
Command line:
ffmpeg -hide_banner -nostdin -i "G:\\\xc0\xed\xe8\xec\xe5\\\xce\xed\xe3\xee\xe8\xed\xe3\xe8\\!_35_\xcb\xe5\xf2\xee_2024\\DreamCast\\\xce\xef\xe5\xf0\xe0\xf6\xe8\xff - \xd1\xe5\xec\xe5\xe9\xea\xe0 \xa8\xe4\xe7\xe0\xea\xf3\xf0\xe0\\[DC] Yozakura-san Chi no Daisakusen - 04_Telegram_HEVC.mkv" -i "G:\\\xc0\xed\xe8\xec\xe5\\\xce\xed\xe3\xee\xe8\xed\xe3\xe8\\!_35_\xcb\xe5\xf2\xee_2024\\DreamCast\\\xce\xef\xe5\xf0\xe0\xf6\xe8\xff - \xd1\xe5\xec\xe5\xe9\xea\xe0 \xa8\xe4\xe7\xe0\xea\xf3\xf0\xe0\\[DC] Yozakura-san Chi no Daisakusen - 04_Telegram.mp4" -lavfi "[0:v]settb=AVTB,setpts=PTS-STARTPTS,format=pix_fmts=yuv420p10,fps=24000/1001,scale=1920:1080:flags=bicubic[main];[1:v]settb=AVTB,setpts=PTS-STARTPTS,format=pix_fmts=yuv420p,fps=24000/1001,scale=1920:1080:flags=bicubic[ref];[main][ref]ssim=eof_action=endall:stats_file='D\\:/Convert/FFMetrics/logs/ssim_logfile-6.txt'" -f null -
Input #0, matroska,webm, from 'G:\Аниме\Онгоинги\!_35_Лето_2024\DreamCast\Операция - Семейка Ёдзакура\[DC] Yozakura-san Chi no Daisakusen - 04_Telegram_HEVC.mkv':
  Metadata:
    COMPATIBLE_BRANDS: isomiso2avc1mp41
    MAJOR_BRAND     : isom
    MINOR_VERSION   : 512
    ENCODER         : Lavf61.7.100
  Duration: 00:24:04.69, start: -0.021000, bitrate: 1170 kb/s
  Stream #0:0: Video: hevc (Main 10), yuv420p10le(tv, bt709, progressive), 1920x1080 [SAR 1:1 DAR 16:9], 23.98 fps, 23.98 tbr, 1k tbn (default)
      Metadata:
        HANDLER_NAME    : VideoHandler
        VENDOR_ID       : [0][0][0][0]
        ENCODER         : Lavc61.19.100 libx265
        BPS             : 972882
        DURATION        : 00:24:04.567708333
        NUMBER_OF_FRAMES: 34635
        NUMBER_OF_BYTES : 175674193
        _STATISTICS_WRITING_APP: mkvpropedit v66.0.0 ('Josie') 64-bit
        _STATISTICS_WRITING_DATE_UTC: 2025-05-08 12:59:26
        _STATISTICS_TAGS: BPS DURATION NUMBER_OF_FRAMES NUMBER_OF_BYTES
  Stream #0:1: Audio: aac (LC), 48000 Hz, stereo, fltp (default)
      Metadata:
        HANDLER_NAME    : SoundHandler
        VENDOR_ID       : [0][0][0][0]
        ENCODER         : Lavc61.19.100 aac
        BPS             : 193694
        DURATION        : 00:24:04.693000000
        NUMBER_OF_FRAMES: 67721
        NUMBER_OF_BYTES : 34978700
        _STATISTICS_WRITING_APP: mkvpropedit v66.0.0 ('Josie') 64-bit
        _STATISTICS_WRITING_DATE_UTC: 2025-05-08 12:59:26
        _STATISTICS_TAGS: BPS DURATION NUMBER_OF_FRAMES NUMBER_OF_BYTES
Input #1, mov,mp4,m4a,3gp,3g2,mj2, from 'G:\Аниме\Онгоинги\!_35_Лето_2024\DreamCast\Операция - Семейка Ёдзакура\[DC] Yozakura-san Chi no Daisakusen - 04_Telegram.mp4':
  Metadata:
    major_brand     : isom
    minor_version   : 512
    compatible_brands: isomiso2avc1mp41
    encoder         : Lavf60.16.100
  Duration: 00:24:04.63, start: 0.000000, bitrate: 3617 kb/s
  Stream #1:0[0x1](und): Video: h264 (High) (avc1 / 0x31637661), yuv420p(tv, bt709, progressive), 1920x1080 [SAR 1:1 DAR 16:9], 3469 kb/s, 23.98 fps, 23.98 tbr, 24k tbn (default)
      Metadata:
        handler_name    : VideoHandler
        vendor_id       : [0][0][0][0]
        encoder         : Lavc60.31.102 h264_qsv
  Stream #1:1[0x2](und): Audio: aac (HE-AACv2) (mp4a / 0x6134706D), 48000 Hz, stereo, fltp, 144 kb/s (default)
      Metadata:
        handler_name    : SoundHandler
        vendor_id       : [0][0][0][0]
Stream mapping:
  Stream #0:0 (hevc) -> settb:default
  Stream #1:0 (h264) -> settb:default
  ssim:default -> Stream #0:0 (wrapped_avframe)
  Stream #0:1 -> #0:1 (aac (native) -> pcm_s16le (native))
Output #0, null, to 'pipe:':
  Metadata:
    COMPATIBLE_BRANDS: isomiso2avc1mp41
    MAJOR_BRAND     : isom
    MINOR_VERSION   : 512
    encoder         : Lavf61.7.100
  Stream #0:0: Video: wrapped_avframe, yuv420p10le(tv, bt709, progressive), 1920x1080 [SAR 1:1 DAR 16:9], q=2-31, 200 kb/s, 23.98 fps, 23.98 tbn
      Metadata:
        encoder         : Lavc61.19.100 wrapped_avframe
  Stream #0:1: Audio: pcm_s16le, 48000 Hz, stereo, s16, 1536 kb/s (default)
      Metadata:
        HANDLER_NAME    : SoundHandler
        VENDOR_ID       : [0][0][0][0]
        _STATISTICS_TAGS: BPS DURATION NUMBER_OF_FRAMES NUMBER_OF_BYTES
        BPS             : 193694
        DURATION        : 00:24:04.693000000
        NUMBER_OF_FRAMES: 67721
        NUMBER_OF_BYTES : 34978700
        _STATISTICS_WRITING_APP: mkvpropedit v66.0.0 ('Josie') 64-bit
        _STATISTICS_WRITING_DATE_UTC: 2025-05-08 12:59:26
        encoder         : Lavc61.19.100 pcm_s16le
frame=  179 fps=0.0 q=-0.0 size=N/A time=00:00:07.46 bitrate=N/A speed=14.3x    frame=  405 fps=387 q=-0.0 size=N/A time=00:00:16.89 bitrate=N/A speed=16.2x    frame=  638 fps=411 q=-0.0 size=N/A time=00:00:26.60 bitrate=N/A speed=17.1x    frame=  883 fps=425 q=-0.0 size=N/A time=00:00:36.82 bitrate=N/A speed=17.7x    frame= 1134 fps=439 q=-0.0 size=N/A time=00:00:47.29 bitrate=N/A speed=18.3x    frame= 1381 fps=445 q=-0.0 size=N/A time=00:00:57.59 bitrate=N/A speed=18.5x    frame= 1598 fps=442 q=-0.0 size=N/A time=00:01:06.64 bitrate=N/A speed=18.4x    frame= 1831 fps=444 q=-0.0 size=N/A time=00:01:16.36 bitrate=N/A speed=18.5x    frame= 2072 fps=446 q=-0.0 size=N/A time=00:01:26.41 bitrate=N/A speed=18.6x    frame= 2335 fps=452 q=-0.0 size=N/A time=00:01:37.38 bitrate=N/A speed=18.8x    frame= 2566 fps=452 q=-0.0 size=N/A time=00:01:47.02 bitrate=N/A speed=18.8x    frame= 2754 fps=444 q=-0.0 size=N/A time=00:01:54.86 bitrate=N/A speed=18.5x    frame= 2992 fps=446 q=-0.0 size=N/A time=00:02:04.79 bitrate=N/A speed=18.6x    frame= 3201 fps=443 q=-0.0 size=N/A time=00:02:13.50 bitrate=N/A speed=18.5x    frame= 3390 fps=438 q=-0.0 size=N/A time=00:02:21.39 bitrate=N/A speed=18.3x    frame= 3576 fps=433 q=-0.0 size=N/A time=00:02:29.14 bitrate=N/A speed=18.1x    frame= 3748 fps=428 q=-0.0 size=N/A time=00:02:36.32 bitrate=N/A speed=17.8x    frame= 3926 fps=422 q=-0.0 size=N/A time=00:02:43.74 bitrate=N/A speed=17.6x    frame= 4100 fps=419 q=-0.0 size=N/A time=00:02:51.00 bitrate=N/A speed=17.5x    frame= 4312 fps=418 q=-0.0 size=N/A time=00:02:59.84 bitrate=N/A speed=17.4x    frame= 4498 fps=415 q=-0.0 size=N/A time=00:03:07.60 bitrate=N/A speed=17.3x    frame= 4700 fps=414 q=-0.0 size=N/A time=00:03:16.02 bitrate=N/A speed=17.3x    frame= 4960 fps=418 q=-0.0 size=N/A time=00:03:26.87 bitrate=N/A speed=17.4x    frame= 5189 fps=419 q=-0.0 size=N/A time=00:03:36.42 bitrate=N/A speed=17.5x    frame= 5424 fps=420 q=-0.0 size=N/A time=00:03:46.22 bitrate=N/A speed=17.5x    frame= 5644 fps=421 q=-0.0 size=N/A time=00:03:55.40 bitrate=N/A speed=17.6x    frame= 5855 fps=421 q=-0.0 size=N/A time=00:04:04.20 bitrate=N/A speed=17.5x    frame= 6072 fps=420 q=-0.0 size=N/A time=00:04:13.25 bitrate=N/A speed=17.5x    frame= 6304 fps=422 q=-0.0 size=N/A time=00:04:22.92 bitrate=N/A speed=17.6x    frame= 6567 fps=424 q=-0.0 size=N/A time=00:04:33.89 bitrate=N/A speed=17.7x    frame= 6835 fps=427 q=-0.0 size=N/A time=00:04:45.07 bitrate=N/A speed=17.8x    frame= 7087 fps=429 q=-0.0 size=N/A time=00:04:55.58 bitrate=N/A speed=17.9x    frame= 7360 fps=432 q=-0.0 size=N/A time=00:05:06.97 bitrate=N/A speed=  18x    frame= 7616 fps=434 q=-0.0 size=N/A time=00:05:17.65 bitrate=N/A speed=18.1x    frame= 7860 fps=436 q=-0.0 size=N/A time=00:05:27.82 bitrate=N/A speed=18.2x    frame= 8085 fps=436 q=-0.0 size=N/A time=00:05:37.21 bitrate=N/A speed=18.2x    frame= 8364 fps=438 q=-0.0 size=N/A time=00:05:48.84 bitrate=N/A speed=18.3x    frame= 8618 fps=440 q=-0.0 size=N/A time=00:05:59.44 bitrate=N/A speed=18.3x    frame= 8867 fps=441 q=-0.0 size=N/A time=00:06:09.82 bitrate=N/A speed=18.4x    frame= 9132 fps=443 q=-0.0 size=N/A time=00:06:20.88 bitrate=N/A speed=18.5x    frame= 9398 fps=444 q=-0.0 size=N/A time=00:06:31.97 bitrate=N/A speed=18.5x    frame= 9669 fps=446 q=-0.0 size=N/A time=00:06:43.27 bitrate=N/A speed=18.6x    frame= 9940 fps=448 q=-0.0 size=N/A time=00:06:54.58 bitrate=N/A speed=18.7x    frame=10193 fps=449 q=-0.0 size=N/A time=00:07:05.13 bitrate=N/A speed=18.7x    frame=10444 fps=450 q=-0.0 size=N/A time=00:07:15.60 bitrate=N/A speed=18.8x    frame=10714 fps=452 q=-0.0 size=N/A time=00:07:26.86 bitrate=N/A speed=18.8x    frame=10990 fps=453 q=-0.0 size=N/A time=00:07:38.37 bitrate=N/A speed=18.9x    frame=11251 fps=454 q=-0.0 size=N/A time=00:07:49.26 bitrate=N/A speed=18.9x    frame=11466 fps=454 q=-0.0 size=N/A time=00:07:58.22 bitrate=N/A speed=18.9x    frame=11715 fps=454 q=-0.0 size=N/A time=00:08:08.61 bitrate=N/A speed=18.9x    frame=11918 fps=453 q=-0.0 size=N/A time=00:08:17.07 bitrate=N/A speed=18.9x    frame=12145 fps=453 q=-0.0 size=N/A time=00:08:26.54 bitrate=N/A speed=18.9x    frame=12393 fps=453 q=-0.0 size=N/A time=00:08:36.89 bitrate=N/A speed=18.9x    frame=12619 fps=453 q=-0.0 size=N/A time=00:08:46.31 bitrate=N/A speed=18.9x    frame=12805 fps=451 q=-0.0 size=N/A time=00:08:54.07 bitrate=N/A speed=18.8x    frame=13062 fps=452 q=-0.0 size=N/A time=00:09:04.79 bitrate=N/A speed=18.9x    frame=13268 fps=451 q=-0.0 size=N/A time=00:09:13.38 bitrate=N/A speed=18.8x    frame=13529 fps=452 q=-0.0 size=N/A time=00:09:24.27 bitrate=N/A speed=18.9x    frame=13773 fps=453 q=-0.0 size=N/A time=00:09:34.44 bitrate=N/A speed=18.9x    frame=14019 fps=453 q=-0.0 size=N/A time=00:09:44.70 bitrate=N/A speed=18.9x    frame=14254 fps=453 q=-0.0 size=N/A time=00:09:54.51 bitrate=N/A speed=18.9x    frame=14519 fps=454 q=-0.0 size=N/A time=00:10:05.56 bitrate=N/A speed=18.9x    frame=14798 fps=455 q=-0.0 size=N/A time=00:10:17.19 bitrate=N/A speed=  19x    frame=15023 fps=455 q=-0.0 size=N/A time=00:10:26.58 bitrate=N/A speed=  19x    frame=15258 fps=455 q=-0.0 size=N/A time=00:10:36.38 bitrate=N/A speed=  19x    frame=15479 fps=455 q=-0.0 size=N/A time=00:10:45.60 bitrate=N/A speed=  19x    frame=15714 fps=455 q=-0.0 size=N/A time=00:10:55.40 bitrate=N/A speed=  19x    frame=15980 fps=456 q=-0.0 size=N/A time=00:11:06.49 bitrate=N/A speed=  19x    frame=16260 fps=457 q=-0.0 size=N/A time=00:11:18.17 bitrate=N/A speed=19.1x    frame=16519 fps=457 q=-0.0 size=N/A time=00:11:28.97 bitrate=N/A speed=19.1x    frame=16756 fps=458 q=-0.0 size=N/A time=00:11:38.86 bitrate=N/A speed=19.1x    frame=17010 fps=458 q=-0.0 size=N/A time=00:11:49.45 bitrate=N/A speed=19.1x    frame=17237 fps=458 q=-0.0 size=N/A time=00:11:58.92 bitrate=N/A speed=19.1x    frame=17464 fps=458 q=-0.0 size=N/A time=00:12:08.39 bitrate=N/A speed=19.1x    frame=17720 fps=458 q=-0.0 size=N/A time=00:12:19.07 bitrate=N/A speed=19.1x    frame=17983 fps=459 q=-0.0 size=N/A time=00:12:30.04 bitrate=N/A speed=19.1x    frame=18236 fps=459 q=-0.0 size=N/A time=00:12:40.59 bitrate=N/A speed=19.2x    frame=18454 fps=459 q=-0.0 size=N/A time=00:12:49.68 bitrate=N/A speed=19.1x    frame=18717 fps=459 q=-0.0 size=N/A time=00:13:00.65 bitrate=N/A speed=19.2x    frame=18960 fps=460 q=-0.0 size=N/A time=00:13:10.79 bitrate=N/A speed=19.2x    frame=19234 fps=460 q=-0.0 size=N/A time=00:13:22.21 bitrate=N/A speed=19.2x    frame=19500 fps=461 q=-0.0 size=N/A time=00:13:33.31 bitrate=N/A speed=19.2x    frame=19779 fps=462 q=-0.0 size=N/A time=00:13:44.94 bitrate=N/A speed=19.3x    frame=20049 fps=463 q=-0.0 size=N/A time=00:13:56.21 bitrate=N/A speed=19.3x    frame=20288 fps=463 q=-0.0 size=N/A time=00:14:06.17 bitrate=N/A speed=19.3x    frame=20535 fps=463 q=-0.0 size=N/A time=00:14:16.48 bitrate=N/A speed=19.3x    frame=20805 fps=464 q=-0.0 size=N/A time=00:14:27.74 bitrate=N/A speed=19.3x    frame=21092 fps=465 q=-0.0 size=N/A time=00:14:39.71 bitrate=N/A speed=19.4x    frame=21354 fps=465 q=-0.0 size=N/A time=00:14:50.63 bitrate=N/A speed=19.4x    frame=21624 fps=466 q=-0.0 size=N/A time=00:15:01.90 bitrate=N/A speed=19.4x    frame=21895 fps=466 q=-0.0 size=N/A time=00:15:13.20 bitrate=N/A speed=19.5x    frame=22175 fps=467 q=-0.0 size=N/A time=00:15:24.88 bitrate=N/A speed=19.5x    frame=22431 fps=468 q=-0.0 size=N/A time=00:15:35.55 bitrate=N/A speed=19.5x    frame=22677 fps=468 q=-0.0 size=N/A time=00:15:45.81 bitrate=N/A speed=19.5x    frame=22942 fps=468 q=-0.0 size=N/A time=00:15:56.87 bitrate=N/A speed=19.5x    frame=23214 fps=469 q=-0.0 size=N/A time=00:16:08.21 bitrate=N/A speed=19.6x    frame=23479 fps=469 q=-0.0 size=N/A time=00:16:19.26 bitrate=N/A speed=19.6x    frame=23737 fps=470 q=-0.0 size=N/A time=00:16:30.03 bitrate=N/A speed=19.6x    frame=23989 fps=470 q=-0.0 size=N/A time=00:16:40.54 bitrate=N/A speed=19.6x    frame=24252 fps=470 q=-0.0 size=N/A time=00:16:51.51 bitrate=N/A speed=19.6x    frame=24520 fps=471 q=-0.0 size=N/A time=00:17:02.68 bitrate=N/A speed=19.6x    frame=24779 fps=471 q=-0.0 size=N/A time=00:17:13.49 bitrate=N/A speed=19.6x    frame=25026 fps=471 q=-0.0 size=N/A time=00:17:23.79 bitrate=N/A speed=19.6x    frame=25278 fps=471 q=-0.0 size=N/A time=00:17:34.30 bitrate=N/A speed=19.7x    frame=25530 fps=471 q=-0.0 size=N/A time=00:17:44.81 bitrate=N/A speed=19.7x    frame=25774 fps=471 q=-0.0 size=N/A time=00:17:54.99 bitrate=N/A speed=19.7x    frame=26054 fps=472 q=-0.0 size=N/A time=00:18:06.66 bitrate=N/A speed=19.7x    frame=26291 fps=472 q=-0.0 size=N/A time=00:18:16.55 bitrate=N/A speed=19.7x    frame=26560 fps=472 q=-0.0 size=N/A time=00:18:27.77 bitrate=N/A speed=19.7x    frame=26797 fps=472 q=-0.0 size=N/A time=00:18:37.65 bitrate=N/A speed=19.7x    frame=27038 fps=472 q=-0.0 size=N/A time=00:18:47.70 bitrate=N/A speed=19.7x    frame=27240 fps=471 q=-0.0 size=N/A time=00:18:56.13 bitrate=N/A speed=19.7x    frame=27483 fps=472 q=-0.0 size=N/A time=00:19:06.27 bitrate=N/A speed=19.7x    frame=27729 fps=472 q=-0.0 size=N/A time=00:19:16.53 bitrate=N/A speed=19.7x    frame=27956 fps=471 q=-0.0 size=N/A time=00:19:25.99 bitrate=N/A speed=19.7x    frame=28190 fps=471 q=-0.0 size=N/A time=00:19:35.75 bitrate=N/A speed=19.6x    frame=28412 fps=471 q=-0.0 size=N/A time=00:19:45.01 bitrate=N/A speed=19.6x    frame=28666 fps=471 q=-0.0 size=N/A time=00:19:55.61 bitrate=N/A speed=19.6x    frame=28910 fps=471 q=-0.0 size=N/A time=00:20:05.78 bitrate=N/A speed=19.6x    frame=29179 fps=471 q=-0.0 size=N/A time=00:20:17.00 bitrate=N/A speed=19.7x    frame=29416 fps=471 q=-0.0 size=N/A time=00:20:26.89 bitrate=N/A speed=19.7x    frame=29645 fps=471 q=-0.0 size=N/A time=00:20:36.44 bitrate=N/A speed=19.6x    frame=29859 fps=471 q=-0.0 size=N/A time=00:20:45.36 bitrate=N/A speed=19.6x    frame=30129 fps=471 q=-0.0 size=N/A time=00:20:56.63 bitrate=N/A speed=19.6x    frame=30388 fps=471 q=-0.0 size=N/A time=00:21:07.43 bitrate=N/A speed=19.7x    frame=30644 fps=471 q=-0.0 size=N/A time=00:21:18.11 bitrate=N/A speed=19.7x    frame=30905 fps=472 q=-0.0 size=N/A time=00:21:28.99 bitrate=N/A speed=19.7x    frame=31151 fps=472 q=-0.0 size=N/A time=00:21:39.25 bitrate=N/A speed=19.7x    frame=31412 fps=472 q=-0.0 size=N/A time=00:21:50.14 bitrate=N/A speed=19.7x    frame=31660 fps=472 q=-0.0 size=N/A time=00:22:00.48 bitrate=N/A speed=19.7x    frame=31914 fps=472 q=-0.0 size=N/A time=00:22:11.07 bitrate=N/A speed=19.7x    frame=32151 fps=472 q=-0.0 size=N/A time=00:22:20.96 bitrate=N/A speed=19.7x    frame=32368 fps=472 q=-0.0 size=N/A time=00:22:30.01 bitrate=N/A speed=19.7x    frame=32594 fps=472 q=-0.0 size=N/A time=00:22:39.44 bitrate=N/A speed=19.7x    frame=32845 fps=472 q=-0.0 size=N/A time=00:22:49.91 bitrate=N/A speed=19.7x    frame=33067 fps=471 q=-0.0 size=N/A time=00:22:59.16 bitrate=N/A speed=19.7x    frame=33311 fps=471 q=-0.0 size=N/A time=00:23:09.34 bitrate=N/A speed=19.7x    frame=33514 fps=471 q=-0.0 size=N/A time=00:23:17.81 bitrate=N/A speed=19.6x    frame=33698 fps=470 q=-0.0 size=N/A time=00:23:25.48 bitrate=N/A speed=19.6x    frame=33883 fps=469 q=-0.0 size=N/A time=00:23:33.20 bitrate=N/A speed=19.6x    frame=34094 fps=469 q=-0.0 size=N/A time=00:23:42.00 bitrate=N/A speed=19.5x    frame=34262 fps=468 q=-0.0 size=N/A time=00:23:49.01 bitrate=N/A speed=19.5x    frame=34431 fps=467 q=-0.0 size=N/A time=00:23:56.05 bitrate=N/A speed=19.5x    [Parsed_ssim_10 @ 00000176fd340140] SSIM Y:0.995135 (23.129602) U:0.994090 (22.283813) V:0.993891 (22.140214) All:0.994754 (22.801494)
[out#0/null @ 00000176f030eec0] video:14882KiB audio:270884KiB subtitle:0KiB other streams:0KiB global headers:0KiB muxing overhead: unknown
frame=34635 fps=467 q=-0.0 Lsize=N/A time=00:24:04.56 bitrate=N/A speed=19.5x    
